<svg width="26" height="16" viewBox="0 0 26 16" fill="none" xmlns="http://www.w3.org/2000/svg">
<path d="M0.888891 0C0.397971 0 0 0.39797 0 0.88889V0.88889C0 1.37981 0.397969 1.77778 0.888889 1.77778H13H17.8311C18.322 1.77778 18.72 1.37981 18.72 0.88889V0.88889C18.72 0.39797 18.322 0 17.8311 0H0.888891ZM0.895261 7.11112C0.400822 7.11112 0 7.51194 0 8.00638V8.00638C0 8.50082 0.400822 8.90164 0.895262 8.90164H25.1047C25.5992 8.90164 26 8.50082 26 8.00638V8.00638C26 7.51194 25.5992 7.11112 25.1047 7.11112H0.895261ZM0.888884 14.2222C0.397967 14.2222 0 14.6202 0 15.1111V15.1111C0 15.602 0.397967 16 0.888884 16H25.1111C25.602 16 26 15.602 26 15.1111V15.1111C26 14.6202 25.602 14.2222 25.1111 14.2222H0.888884Z" fill="#242424"/>
</svg>
